<svg xmlns="http://www.w3.org/2000/svg" data-name="Layer 1" viewBox="0 0 32 32" id="movie-review"><path fill="#787681" d="M4.25 12.51h25v19h-25z"></path><path fill="#57565c" d="M28.25 12.51h1v19h-1z"></path><path fill="#fdd8ae" d="M13.8 18.83a24.48 24.48 0 0 1 3.32-.26 22.71 22.71 0 0 1 3 .16.88.88 0 0 1 .78.88v.11a.88.88 0 0 1-.89.88h.59a.89.89 0 0 1 .89.89.88.88 0 0 1-.89.88h.59a.89.89 0 0 1 .89.89.88.88 0 0 1-.89.88.89.89 0 0 1 .89.89.88.88 0 0 1-.89.88H18l.81 2.16a.79.79 0 0 1-.51 1 .81.81 0 0 1-.9-.31 22.05 22.05 0 0 0-1.81-2.31 22.7 22.7 0 0 0-1.77-1.77Z"></path><path fill="#fbbf7d" d="m17 25.91.81 2.16a.79.79 0 0 1-.27.91.81.81 0 0 0 .74.14.79.79 0 0 0 .51-1L18 25.91h-1m4.17-1.77a.89.89 0 1 0 0-1.77h-.59a.89.89 0 1 0 0-1.77H20a.88.88 0 0 0 .89-.88v-.11a.88.88 0 0 0-.78-.88 22.71 22.71 0 0 0-3-.16h-.45a22.31 22.31 0 0 1 2.43.15.88.88 0 0 1 .78.88v.11a.88.88 0 0 1-.89.88h.59a.89.89 0 1 1 0 1.77h.59a.89.89 0 1 1 0 1.77.89.89 0 1 1 0 1.77h1a.89.89 0 1 0 0-1.77z"></path><path fill="#fff" d="M11.44 25.91v-7.67h2.36v7.67z"></path><path fill="#57565c" d="M4.25 12.51h25v3h-25z"></path><path fill="#3c3b41" d="M28.25 12.51h1v3h-1z"></path><path fill="#e1e1e3" d="M25.82 15.51h-4l1-3h4l-1 3zM18.82 15.51h-4l1-3h4l-1 3zM11.82 15.51h-4l1-3h4l-1 3z"></path><path fill="#57565c" d="M3.212 9.59 26.55.633l1.075 2.8-23.34 8.96z"></path><path fill="#3c3b41" d="m8.49 10.39.02.38-4.23 1.62-.13-.33 4.34-1.67zM15.05 8.26l-2.8 1.07-.02-.37 2.8-1.08.02.38zM21.58 5.75l-2.8 1.07-.02-.37 2.8-1.08.02.38zM27.62 3.43l-2.3.88v-.37l.26-.1a1.14 1.14 0 0 0 .66-1.47L25.68 1l.87-.34Z"></path><path fill="#e1e1e3" d="m25.32 4.32-3.74 1.43-.14-3.16 3.74-1.43.14 3.16zM18.78 6.83l-3.73 1.43-.14-3.16 3.73-1.43.14 3.16zM12.25 9.34l-3.74 1.43-.14-3.16 3.74-1.43.14 3.16z"></path><path fill="#c8c5cc" d="m25.32 4.31-3.74 1.44-.02-.38 3.74-1.43.02.37z"></path><path fill="#e1e1e3" d="m25.3 3.94-3.74 1.43-.12-2.78 3.74-1.43.12 2.78zM25.32 4.31v.01l-3.74 1.43 3.74-1.44z"></path><path fill="#c8c5cc" d="M18.78 6.82v.01l-3.73 1.43-.02-.38 3.73-1.43.02.37z"></path><path fill="#e1e1e3" d="m18.76 6.45-3.73 1.43-.12-2.78 3.73-1.43.12 2.78z"></path><path fill="#c8c5cc" d="m12.25 9.33-3.74 1.44-.02-.38 3.74-1.43.02.37z"></path><path fill="#e1e1e3" d="m12.23 8.96-3.74 1.43-.12-2.78 3.74-1.43.12 2.78zM12.25 9.33v.01l-3.74 1.43 3.74-1.44z"></path><circle cx="4.25" cy="12.51" r="1.5" fill="#3c3b41"></circle><path fill="#2c2a2d" d="M4.25 11a1.64 1.64 0 0 0-.5.09 1.49 1.49 0 0 1 0 2.82 1.39 1.39 0 0 0 .5.09 1.5 1.5 0 0 0 0-3Z"></path><path d="m6.67 12 21.6-8.29L26.83 0 2.56 9.3l.59 1.54a2 2 0 0 0-.9 1.67 2 2 0 0 0 1.5 1.93V32h26V12Zm16.51 1h2.95l-.67 2h-2.94Zm-3 0h1.95l-.67 2h-1.94Zm-4 0h2.95l-.67 2h-2.94Zm-3 0h2l-.67 2h-1.99Zm-4 0h3l-.67 2H8.52Zm-1 0-.67 2H4.75v-.57A2 2 0 0 0 6.18 13ZM26.26 1.28 27 3.15l-1.19.45-.1-2.1Zm-1.55.59L24.8 4l-2.75 1L22 2.93ZM21 3.31l.1 2.1-1.82.7L19.16 4Zm-2.8 1.07.1 2.11-2.78 1.06-.1-2.11Zm-3.76 1.44.09 2.1-1.81.7-.1-2.11Zm-2.8 1.07L11.73 9 9 10.05 8.89 8ZM7.9 8.33l.1 2.1-2.19.84a2 2 0 0 0-1.56-.76H4.1l-.25-.65Zm-4.65 4.18a1 1 0 1 1 1 1 1 1 0 0 1-1-1ZM28.75 31h-24V16h24Zm0-16h-2.23l.66-2h1.57ZM14.3 25.89c.31.31.61.62.9.94A24.25 24.25 0 0 1 17 29.1a1.28 1.28 0 0 0 1.06.55 1.52 1.52 0 0 0 .42-.06 1.3 1.3 0 0 0 .83-1.7l-.56-1.48h2.45a1.38 1.38 0 0 0 1.07-2.27 1.38 1.38 0 0 0 .32-.88 1.4 1.4 0 0 0-.71-1.21 1.31 1.31 0 0 0 .12-.56 1.4 1.4 0 0 0-.71-1.21 1.31 1.31 0 0 0 .12-.56v-.11a1.39 1.39 0 0 0-1.22-1.38 23.82 23.82 0 0 0-3-.16 22.15 22.15 0 0 0-2.82.2v-.52h-3.43v8.66h3.36Zm0-6.61a20.61 20.61 0 0 1 2.83-.21 21.84 21.84 0 0 1 2.91.16.38.38 0 0 1 .34.38v.11a.38.38 0 0 1-.39.38h-.29v1h.88a.39.39 0 0 1 .39.39.38.38 0 0 1-.39.38h-.88v1h1.47a.4.4 0 0 1 .39.39.39.39 0 0 1-.39.38H19.7v1h1.47a.39.39 0 1 1 0 .77h-3.89l1.06 2.83a.31.31 0 0 1 0 .24.31.31 0 0 1-.2.16.28.28 0 0 1-.33-.11 23.53 23.53 0 0 0-1.86-2.36 19.64 19.64 0 0 0-1.64-1.65Zm-1 6.13h-1.36v-6.66h1.36Z"></path></svg>